[Header]
FileType HTR
DataType HTRS
FileVersion 1
NumSegments 64
NumFrames 4
DataFrameRate 24
EulerRotationOrder ZYX
CalibrationUnits mm
RotationUnits Degrees
GlobalAxisofGravity Y
BoneLengthAxis Y
ScaleFactor 1.0
[SegmentNames&Hierarchy]
Hips	GLOBAL
Spine	Hips
Spine1	Spine
Spine2	Spine1
Neck	Spine2
Head	Neck
LeftEye	Head
RightEye	Head
LeftShoulder	Spine2
LeftArm	LeftShoulder
LeftForeArm	LeftArm
LeftHand	LeftForeArm
LeftHandThumb1	LeftHand
LeftHandThumb2	LeftHandThumb1
LeftHandThumb3	LeftHandThumb2
LeftHandThumb4	LeftHandThumb3
LeftHandIndex1	LeftHand
LeftHandIndex2	LeftHandIndex1
LeftHandIndex3	LeftHandIndex2
LeftHandIndex4	LeftHandIndex3
LeftHandMiddle1	LeftHand
LeftHandMiddle2	LeftHandMiddle1
LeftHandMiddle3	LeftHandMiddle2
LeftHandMiddle4	LeftHandMiddle3
LeftHandRing1	LeftHand
LeftHandRing2	LeftHandRing1
LeftHandRing3	LeftHandRing2
LeftHandRing4	LeftHandRing3
LeftHandPinky1	LeftHand
LeftHandPinky2	LeftHandPinky1
LeftHandPinky3	LeftHandPinky2
LeftHandPinky4	LeftHandPinky3
RightShoulder	Spine2
RightArm	RightShoulder
RightForeArm	RightArm
RightHand	RightForeArm
RightHandPinky1	RightHand
RightHandPinky2	RightHandPinky1
RightHandPinky3	RightHandPinky2
RightHandPinky4	RightHandPinky3
RightHandRing1	RightHand
RightHandRing2	RightHandRing1
RightHandRing3	RightHandRing2
RightHandRing4	RightHandRing3
RightHandMiddle1	RightHand
RightHandMiddle2	RightHandMiddle1
RightHandMiddle3	RightHandMiddle2
RightHandMiddle4	RightHandMiddle3
RightHandIndex1	RightHand
RightHandIndex2	RightHandIndex1
RightHandIndex3	RightHandIndex2
RightHandIndex4	RightHandIndex3
RightHandThumb1	RightHand
RightHandThumb2	RightHandThumb1
RightHandThumb3	RightHandThumb2
RightHandThumb4	RightHandThumb3
LeftUpLeg	Hips
LeftLeg	LeftUpLeg
LeftFoot	LeftLeg
LeftToeBase	LeftFoot
RightUpLeg	Hips
RightLeg	RightUpLeg
RightFoot	RightLeg
RightToeBase	RightFoot
[BasePosition]
Hips	0	0	0	0	0	0	1
Spine	0	0	0	0	0	0	1
Spine1	0	0	0	0	0	0	1
Spine2	0	0	0	0	0	0	1
Neck	0	0	0	0	0	0	1
Head	0	0	0	0	0	0	1
LeftEye	0	0	0	0	0	0	1
RightEye	0	0	0	0	0	0	1
LeftShoulder	0	0	0	0	0	0	1
LeftArm	0	0	0	0	0	0	1
LeftForeArm	0	0	0	0	0	0	1
LeftHand	0	0	0	0	0	0	1
LeftHandThumb1	0	0	0	0	0	0	1
LeftHandThumb2	0	0	0	0	0	0	1
LeftHandThumb3	0	0	0	0	0	0	1
LeftHandThumb4	0	0	0	0	0	0	1
LeftHandIndex1	0	0	0	0	0	0	1
LeftHandIndex2	0	0	0	0	0	0	1
LeftHandIndex3	0	0	0	0	0	0	1
LeftHandIndex4	0	0	0	0	0	0	1
LeftHandMiddle1	0	0	0	0	0	0	1
LeftHandMiddle2	0	0	0	0	0	0	1
LeftHandMiddle3	0	0	0	0	0	0	1
LeftHandMiddle4	0	0	0	0	0	0	1
LeftHandRing1	0	0	0	0	0	0	1
LeftHandRing2	0	0	0	0	0	0	1
LeftHandRing3	0	0	0	0	0	0	1
LeftHandRing4	0	0	0	0	0	0	1
LeftHandPinky1	0	0	0	0	0	0	1
LeftHandPinky2	0	0	0	0	0	0	1
LeftHandPinky3	0	0	0	0	0	0	1
LeftHandPinky4	0	0	0	0	0	0	1
RightShoulder	0	0	0	0	0	0	1
RightArm	0	0	0	0	0	0	1
RightForeArm	0	0	0	0	0	0	1
RightHand	0	0	0	0	0	0	1
RightHandPinky1	0	0	0	0	0	0	1
RightHandPinky2	0	0	0	0	0	0	1
RightHandPinky3	0	0	0	0	0	0	1
RightHandPinky4	0	0	0	0	0	0	1
RightHandRing1	0	0	0	0	0	0	1
RightHandRing2	0	0	0	0	0	0	1
RightHandRing3	0	0	0	0	0	0	1
RightHandRing4	0	0	0	0	0	0	1
RightHandMiddle1	0	0	0	0	0	0	1
RightHandMiddle2	0	0	0	0	0	0	1
RightHandMiddle3	0	0	0	0	0	0	1
RightHandMiddle4	0	0	0	0	0	0	1
RightHandIndex1	0	0	0	0	0	0	1
RightHandIndex2	0	0	0	0	0	0	1
RightHandIndex3	0	0	0	0	0	0	1
RightHandIndex4	0	0	0	0	0	0	1
RightHandThumb1	0	0	0	0	0	0	1
RightHandThumb2	0	0	0	0	0	0	1
RightHandThumb3	0	0	0	0	0	0	1
RightHandThumb4	0	0	0	0	0	0	1
LeftUpLeg	0	0	0	0	0	0	1
LeftLeg	0	0	0	0	0	0	1
LeftFoot	0	0	0	0	0	0	1
LeftToeBase	0	0	0	0	0	0	1
RightUpLeg	0	0	0	0	0	0	1
RightLeg	0	0	0	0	0	0	1
RightFoot	0	0	0	0	0	0	1
RightToeBase	0	0	0	0	0	0	1
[Hips]
38	11.57948685	1016.813293	18.74419975	-0.8959727287	1.426756263	-5.7941432	1.0
39	11.5770607	1016.832153	18.87139893	-0.9227831364	1.446945786	-5.802313328	1.0
40	11.5578804	1016.810913	19.0385704	-0.9478822947	1.463506937	-5.813840866	1.0
41	11.52168465	1016.789185	19.23387337	-0.9711118937	1.476963997	-5.822165012	1.0
[Spine]
38	0	101.8159943	1.315000057	0.8203596473	-1.340313196	2.950868368	1.0
39	0	101.8159943	1.315000057	0.7983205318	-1.342838287	2.94402194	1.0
40	0	101.8159943	1.315000057	0.7810178995	-1.345079184	2.94806695	1.0
41	0	101.8159943	1.315000057	0.764008522	-1.34753561	2.954075336	1.0
[Spine1]
38	0	100.8349991	-10.00800037	-0.1838674247	0.1019234806	5.928864956	1.0
39	0	100.8349991	-10.00800037	-0.206911236	0.09968154877	5.928324699	1.0
40	0	100.8349991	-10.00800037	-0.2289737463	0.0975946039	5.929337502	1.0
41	0	100.8349991	-10.00800037	-0.2492173165	0.09559728205	5.930459499	1.0
[Spine2]
38	0	91	-13.73399925	-0.1540374607	0.7110515237	5.832359791	1.0
39	0	91	-13.73399925	-0.1772157252	0.711242497	5.831505299	1.0
40	0	91	-13.73399925	-0.1994046122	0.7114518285	5.832217216	1.0
41	0	91	-13.73399925	-0.2197653204	0.7115670443	5.833058357	1.0
[Neck]
38	0	166.7169952	-25.16200066	1.255190492	-0.2120088339	-2.223800898	1.0
39	0	166.7169952	-25.16200066	1.239197612	-0.2200226039	-2.218027592	1.0
40	0	166.7169952	-25.16200066	1.222225904	-0.2244394124	-2.211776733	1.0
41	0	166.7169952	-25.16200066	1.208366156	-0.227079168	-2.205522299	1.0
[Head]
38	0	96.17900085	16.84999847	1.754303336	0.8924287558	-7.990614414	1.0
39	0	96.17900085	16.84999847	1.770965219	0.8593948483	-7.967675686	1.0
40	0	96.17900085	16.84999847	1.785195112	0.8455381393	-7.948450089	1.0
41	0	96.17900085	16.84999847	1.805723548	0.8406879902	-7.930682659	1.0
[LeftEye]
38	30.6760006	64.09500122	92.83599854	0	0	0	1.0
39	30.6760006	64.09500122	92.83599854	0	0	0	1.0
40	30.6760006	64.09500122	92.83599854	0	0	0	1.0
41	30.6760006	64.09500122	92.83599854	0	0	0	1.0
[RightEye]
38	-30.6760006	64.09500122	92.83499908	0	0	0	1.0
39	-30.6760006	64.09500122	92.83499908	0	0	0	1.0
40	-30.6760006	64.09500122	92.83499908	0	0	0	1.0
41	-30.6760006	64.09500122	92.83499908	0	0	0	1.0
[LeftShoulder]
38	45.70400238	109.4599991	-26.28000069	4.618044376	-13.74253273	2.199122906	1.0
39	45.70400238	109.4599991	-26.28000069	4.60585022	-13.76573181	2.43356967	1.0
40	45.70400238	109.4599991	-26.28000069	4.60105896	-13.75721645	2.645888329	1.0
41	45.70400238	109.4599991	-26.28000069	4.599182606	-13.73721027	2.839415073	1.0
[LeftArm]
38	105.923996	-5.24600029	-22.32099915	-3.104491949	4.762948036	-92.03530121	1.0
39	105.923996	-5.24600029	-22.32099915	-3.076602459	4.781193256	-92.25759888	1.0
40	105.923996	-5.24600029	-22.32099915	-3.048539162	4.794661999	-92.48616028	1.0
41	105.923996	-5.24600029	-22.32099915	-3.032280922	4.810216427	-92.70838928	1.0
[LeftForeArm]
38	278.414978	-0.0009999999311	0	-1.06599407e-06	-14.59829235	-0.0001996366482	1.0
39	278.414978	-0.0009999999311	0	3.170814125e-06	-14.59417629	-0.0002097981051	1.0
40	278.414978	-0.0009999999311	0	5.11746066e-06	-14.59750748	-0.0002209721715	1.0
41	278.414978	-0.0009999999311	0	5.903647889e-06	-14.60379982	-0.0002328802366	1.0
[LeftHand]
38	283.2879944	0	0	-28.10783958	-0.8851715922	-10.14376736	1.0
39	283.2879944	0	0	-28.08365059	-0.8687457442	-10.15061092	1.0
40	283.2879944	0	0	-28.07854462	-0.8558551073	-10.08616257	1.0
41	283.2879944	0	0	-28.08440208	-0.8442296386	-10.01283646	1.0
[LeftHandThumb1]
38	24.6609993	-15.75	26.8239994	17.35706902	-5.684255123	8.92425251	1.0
39	24.6609993	-15.75	26.8239994	17.33816528	-5.733605385	8.889108658	1.0
40	24.6609993	-15.75	26.8239994	17.32029152	-5.780366421	8.85584259	1.0
41	24.6609993	-15.75	26.8239994	17.30384064	-5.823579311	8.825135231	1.0
[LeftHandThumb2]
38	32.29800034	-18.64699936	18.64699936	-1.325431108	30.51715279	-3.343575954	1.0
39	32.29800034	-18.64699936	18.64699936	-1.348582864	30.45581627	-3.356561184	1.0
40	32.29800034	-18.64699936	18.64699936	-1.370497942	30.39770508	-3.368846416	1.0
41	32.29800034	-18.64699936	18.64699936	-1.39072001	30.34403038	-3.380177498	1.0
[LeftHandThumb3]
38	26.52600098	-15.31499958	15.31499958	1.483136654	7.064234257	-0.5690982938	1.0
39	26.52600098	-15.31499958	15.31499958	1.467072725	7.003005981	-0.5836462379	1.0
40	26.52600098	-15.31499958	15.31499958	1.451870561	6.945007801	-0.5974243879	1.0
41	26.52600098	-15.31499958	15.31499958	1.437849402	6.891434193	-0.610134542	1.0
[LeftHandThumb4]
38	19.54599953	-11.28499985	11.28499985	0	0	0	1.0
39	19.54599953	-11.28499985	11.28499985	0	0	0	1.0
40	19.54599953	-11.28499985	11.28499985	0	0	0	1.0
41	19.54599953	-11.28499985	11.28499985	0	0	0	1.0
[LeftHandIndex1]
38	91.09299469	-5.170999527	22.60099792	-0.3677243292	4.747126579	-8.653432846	1.0
39	91.09299469	-5.170999527	22.60099792	-0.3695444167	4.749193668	-8.675388336	1.0
40	91.09299469	-5.170999527	22.60099792	-0.3712684512	4.751151085	-8.696178436	1.0
41	91.09299469	-5.170999527	22.60099792	-0.3728606403	4.752957821	-8.715379715	1.0
[LeftHandIndex2]
38	36.76399994	0	0	-0.6677690744	2.842366457	-21.38043404	1.0
39	36.76399994	0	0	-0.6688546538	2.844309568	-21.40234566	1.0
40	36.76399994	0	0	-0.6698845625	2.84615016	-21.42309189	1.0
41	36.76399994	0	0	-0.6708375216	2.847849846	-21.44225502	1.0
[LeftHandIndex3]
38	28.83100128	0	0	-0.1246128976	0.8852035403	-10.97641659	1.0
39	28.83100128	0	0	-0.1250329912	0.887363553	-10.99828911	1.0
40	28.83100128	0	0	-0.1254303902	0.8894073963	-11.01899529	1.0
41	28.83100128	0	0	-0.1257975549	0.8912941217	-11.03811455	1.0
[LeftHandIndex4]
38	23.92700005	0	0	0	0	0	1.0
39	23.92700005	0	0	0	0	0	1.0
40	23.92700005	0	0	0	0	0	1.0
41	23.92700005	0	0	0	0	0	1.0
[LeftHandMiddle1]
38	95.33399963	0	0	-1.620433569	8.73601532	-16.69725418	1.0
39	95.33399963	0	0	-1.623122096	8.737577438	-16.71939278	1.0
40	95.33399963	0	0	-1.625670314	8.739057541	-16.74036598	1.0
41	95.33399963	0	0	-1.628025055	8.740424156	-16.75974274	1.0
[LeftHandMiddle2]
38	36.98199844	0	0	-1.482900739	3.883200645	-34.22813416	1.0
39	36.98199844	0	0	-1.484432101	3.884813309	-34.25013733	1.0
40	36.98199844	0	0	-1.485885024	3.886339664	-34.27096939	1.0
41	36.98199844	0	0	-1.48722899	3.887748003	-34.29020309	1.0
[LeftHandMiddle3]
38	29.50900078	0	0	-0.1681309342	1.5635432	-13.07085991	1.0
39	29.50900078	0	0	-0.1686646342	1.56565237	-13.09273338	1.0
40	29.50900078	0	0	-0.1691725403	1.567650795	-13.11345291	1.0
41	29.50900078	0	0	-0.1696420461	1.569497466	-13.13259029	1.0
[LeftHandMiddle4]
38	28.3390007	0	0	0	0	0	1.0
39	28.3390007	0	0	0	0	0	1.0
40	28.3390007	0	0	0	0	0	1.0
41	28.3390007	0	0	0	0	0	1.0
[LeftHandRing1]
38	91.04499817	-0.4390000105	-18.65100098	-2.705312252	11.39533329	-24.5494442	1.0
39	91.04499817	-0.4390000105	-18.65100098	-2.696758032	11.39095116	-24.48408508	1.0
40	91.04499817	-0.4390000105	-18.65100098	-2.688662529	11.386796	-24.42218018	1.0
41	91.04499817	-0.4390000105	-18.65100098	-2.681190491	11.38294792	-24.36500549	1.0
[LeftHandRing2]
38	31.54000092	0	0	-1.055989265	3.866853476	-37.8170433	1.0
39	31.54000092	0	0	-1.052261233	3.861651659	-37.75234985	1.0
40	31.54000092	0	0	-1.048734665	3.856722593	-37.69107437	1.0
41	31.54000092	0	0	-1.045482397	3.852165699	-37.63447952	1.0
[LeftHandRing3]
38	29.37700081	0	0	-0.04116228223	1.673351407	-16.97039413	1.0
39	29.37700081	0	0	-0.03990973532	1.667080998	-16.90615654	1.0
40	29.37700081	0	0	-0.03872537613	1.661139488	-16.84531593	1.0
41	29.37700081	0	0	-0.03763928637	1.655650258	-16.78912163	1.0
[LeftHandRing4]
38	26.47500038	0	0	0	0	0	1.0
39	26.47500038	0	0	0	0	0	1.0
40	26.47500038	0	0	0	0	0	1.0
41	26.47500038	0	0	0	0	0	1.0
[LeftHandPinky1]
38	80.77799988	-4.887000084	-38.06099701	-4.534865856	16.08675766	-34.4284668	1.0
39	80.77799988	-4.887000084	-38.06099701	-4.516261578	16.08543587	-34.3613472	1.0
40	80.77799988	-4.887000084	-38.06099701	-4.498644829	16.08417892	-34.29776382	1.0
41	80.77799988	-4.887000084	-38.06099701	-4.482377529	16.08300591	-34.23903275	1.0
[LeftHandPinky2]
38	36	0	0	-1.770380974	3.657845259	-43.28637695	1.0
39	36	0	0	-1.765720129	3.653410435	-43.2218895	1.0
40	36	0	0	-1.761306524	3.649207115	-43.16080093	1.0
41	36	0	0	-1.757235765	3.645319939	-43.10438156	1.0
[LeftHandPinky3]
38	21.14200211	0	0	-0.445825696	2.617381811	-18.15736961	1.0
39	21.14200211	0	0	-0.4433059394	2.611453533	-18.09306908	1.0
40	21.14200211	0	0	-0.4409211278	2.605835915	-18.03216171	1.0
41	21.14200211	0	0	-0.4387258589	2.60064435	-17.97590256	1.0
[LeftHandPinky4]
38	19.75699997	0	0	0	0	0	1.0
39	19.75699997	0	0	0	0	0	1.0
40	19.75699997	0	0	0	0	0	1.0
41	19.75699997	0	0	0	0	0	1.0
[RightShoulder]
38	-45.70000076	109.4620056	-26.28000069	6.074119091	2.936034203	-1.952971339	1.0
39	-45.70000076	109.4620056	-26.28000069	6.110291004	2.919770479	-2.153954029	1.0
40	-45.70000076	109.4620056	-26.28000069	6.144047737	2.908904076	-2.340207577	1.0
41	-45.70000076	109.4620056	-26.28000069	6.175420284	2.898700953	-2.51014924	1.0
[RightArm]
38	-105.9280014	-5.248000145	-22.32099915	0.5870934725	1.165386796	75.3192215	1.0
39	-105.9280014	-5.248000145	-22.32099915	0.6027190089	1.16542995	75.52355194	1.0
40	-105.9280014	-5.248000145	-22.32099915	0.6420961618	1.163966656	75.70742035	1.0
41	-105.9280014	-5.248000145	-22.32099915	0.6867647767	1.160494089	75.87393188	1.0
[RightForeArm]
38	-278.414978	0	0	-5.465125923e-06	17.63325119	1.95071334e-06	1.0
39	-278.414978	0	0	-7.178627129e-06	17.62672424	-1.235516447e-05	1.0
40	-278.414978	0	0	-2.65618246e-06	17.62939835	7.238136277e-07	1.0
41	-278.414978	0	0	2.538472927e-06	17.63552094	1.627593701e-05	1.0
[RightHand]
38	-283.2879944	0	0.0009999999311	-12.88609028	-6.738048553	12.09203339	1.0
39	-283.2879944	0	0.0009999999311	-12.86791134	-6.754136086	12.07770443	1.0
40	-283.2879944	0	0.0009999999311	-12.85417938	-6.756484985	12.08702469	1.0
41	-283.2879944	0	0.0009999999311	-12.84768772	-6.75041914	12.10248375	1.0
[RightHandPinky1]
38	-80.76699829	-4.885000229	-38.06000137	-4.534790993	-16.08789253	34.42878342	1.0
39	-80.76699829	-4.885000229	-38.06000137	-4.516187668	-16.08657265	34.36165619	1.0
40	-80.76699829	-4.885000229	-38.06000137	-4.498569489	-16.0853157	34.29807281	1.0
41	-80.76699829	-4.885000229	-38.06000137	-4.482298851	-16.08414268	34.23934555	1.0
[RightHandPinky2]
38	-36	0	0.0009999999311	-1.76907742	-3.656141281	43.28634262	1.0
39	-36	0	0.0009999999311	-1.764419317	-3.651708364	43.22186661	1.0
40	-36	0	0.0009999999311	-1.760007739	-3.647503853	43.16078186	1.0
41	-36	0	0.0009999999311	-1.755937338	-3.643614054	43.10436249	1.0
[RightHandPinky3]
38	-21.14200211	0	0	-0.6620265245	0.2683281898	19.758955	1.0
39	-21.14200211	0	0	-0.6593465805	0.2741821408	19.69478607	1.0
40	-21.14200211	0	0	-0.6568086743	0.2797281742	19.63399887	1.0
41	-21.14200211	0	0	-0.6544713378	0.284853816	19.57785225	1.0
[RightHandPinky4]
38	-19.75699997	0	0	0	0	0	1.0
39	-19.75699997	0	0	0	0	0	1.0
40	-19.75699997	0	0	0	0	0	1.0
41	-19.75699997	0	0	0	0	0	1.0
[RightHandRing1]
38	-91.03599548	-0.4390000105	-18.65100098	-2.705250263	-11.39500046	24.54956055	1.0
39	-91.03599548	-0.4390000105	-18.65100098	-2.69669795	-11.39061928	24.48420525	1.0
40	-91.03599548	-0.4390000105	-18.65100098	-2.688602924	-11.38646412	24.4223175	1.0
41	-91.03599548	-0.4390000105	-18.65100098	-2.681130409	-11.382617	24.36515808	1.0
[RightHandRing2]
38	-31.54000092	0	0	-1.0558213	-3.866364479	37.81710434	1.0
39	-31.54000092	0	0	-1.052093506	-3.861163616	37.7524147	1.0
40	-31.54000092	0	0	-1.048566222	-3.856235027	37.69113159	1.0
41	-31.54000092	0	0	-1.04531455	-3.851678371	37.63452911	1.0
[RightHandRing3]
38	-29.37700081	0	0	-0.0933932364	0.3213306963	15.44950676	1.0
39	-29.37700081	0	0	-0.09230808914	0.3276313245	15.38531208	1.0
40	-29.37700081	0	0	-0.0912860781	0.3336005509	15.32450485	1.0
41	-29.37700081	0	0	-0.09034989774	0.3391152322	15.26834106	1.0
[RightHandRing4]
38	-26.47500038	0	0	0	0	0	1.0
39	-26.47500038	0	0	0	0	0	1.0
40	-26.47500038	0	0	0	0	0	1.0
41	-26.47500038	0	0	0	0	0	1.0
[RightHandMiddle1]
38	-95.32500458	0	0	-1.620408177	-8.735783577	16.69737816	1.0
39	-95.32500458	0	0	-1.623099208	-8.737347603	16.71953964	1.0
40	-95.32500458	0	0	-1.625648499	-8.738826752	16.74052429	1.0
41	-95.32500458	0	0	-1.628002763	-8.740192413	16.75989723	1.0
[RightHandMiddle2]
38	-36.98199844	0	0	-1.48276341	-3.882748604	34.22816849	1.0
39	-36.98199844	0	0	-1.484295487	-3.884360075	34.25015259	1.0
40	-36.98199844	0	0	-1.485747218	-3.885887146	34.27098846	1.0
41	-36.98199844	0	0	-1.487088561	-3.887296915	34.29023743	1.0
[RightHandMiddle3]
38	-29.50900078	0	0	-0.2774680257	-1.754766583	16.7056427	1.0
39	-29.50900078	0	0	-0.2781344354	-1.756838322	16.72751999	1.0
40	-29.50900078	0	0	-0.278766036	-1.758800268	16.74824333	1.0
41	-29.50900078	0	0	-0.2793501318	-1.760611773	16.76738167	1.0
[RightHandMiddle4]
38	-28.3390007	0	0.0009999999311	0	0	0	1.0
39	-28.3390007	0	0.0009999999311	0	0	0	1.0
40	-28.3390007	0	0.0009999999311	0	0	0	1.0
41	-28.3390007	0	0.0009999999311	0	0	0	1.0
[RightHandIndex1]
38	-91.08300018	-5.167999744	22.60099792	-0.3677178025	-4.747004986	8.65349865	1.0
39	-91.08300018	-5.167999744	22.60099792	-0.3695349097	-4.749070644	8.675443649	1.0
40	-91.08300018	-5.167999744	22.60099792	-0.3712567687	-4.751027107	8.696231842	1.0
41	-91.08300018	-5.167999744	22.60099792	-0.3728482723	-4.752833366	8.715436935	1.0
[RightHandIndex2]
38	-36.76399994	0	0	-0.6677160263	-2.842077494	21.38049126	1.0
39	-36.76399994	0	0	-0.6688035131	-2.844021559	21.4024086	1.0
40	-36.76399994	0	0	-0.6698342562	-2.845861435	21.42316818	1.0
41	-36.76399994	0	0	-0.6707865	-2.847559929	21.44233322	1.0
[RightHandIndex3]
38	-28.83100128	0	0	-0.2584469318	-0.2359928042	14.65025997	1.0
39	-28.83100128	0	0	-0.2590028048	-0.2381188571	14.67211437	1.0
40	-28.83100128	0	0	-0.2595303357	-0.2401338518	14.69282627	1.0
41	-28.83100128	0	0	-0.2600186765	-0.2419950068	14.71195889	1.0
[RightHandIndex4]
38	-23.92700005	0	0	0	0	0	1.0
39	-23.92700005	0	0	0	0	0	1.0
40	-23.92700005	0	0	0	0	0	1.0
41	-23.92700005	0	0	0	0	0	1.0
[RightHandThumb1]
38	-24.64799881	-15.72700024	26.82600021	17.35674095	5.684494019	-8.924562454	1.0
39	-24.64799881	-15.72700024	26.82600021	17.3378315	5.733843803	-8.889414787	1.0
40	-24.64799881	-15.72700024	26.82600021	17.31996155	5.780599594	-8.856128693	1.0
41	-24.64799881	-15.72700024	26.82600021	17.30351257	5.823807716	-8.825404167	1.0
[RightHandThumb2]
38	-32.29800034	-18.64699936	18.64699936	-1.32609725	-30.51581001	3.345284224	1.0
39	-32.29800034	-18.64699936	18.64699936	-1.349242926	-30.4544735	3.358253717	1.0
40	-32.29800034	-18.64699936	18.64699936	-1.371163249	-30.3963623	3.37054491	1.0
41	-32.29800034	-18.64699936	18.64699936	-1.391391397	-30.3426857	3.38188529	1.0
[RightHandThumb3]
38	-26.52600098	-15.31399918	15.31399918	1.294754624	-6.20227766	1.366892815	1.0
39	-26.52600098	-15.31399918	15.31399918	1.279581904	-6.140835285	1.381109715	1.0
40	-26.52600098	-15.31399918	15.31399918	1.26521945	-6.082633018	1.394558907	1.0
41	-26.52600098	-15.31399918	15.31399918	1.251972079	-6.028871536	1.406963468	1.0
[RightHandThumb4]
38	-19.54599953	-11.28499985	11.28499985	0	0	0	1.0
39	-19.54599953	-11.28499985	11.28499985	0	0	0	1.0
40	-19.54599953	-11.28499985	11.28499985	0	0	0	1.0
41	-19.54599953	-11.28499985	11.28499985	0	0	0	1.0
[LeftUpLeg]
38	82.07800293	-67.51699829	-15.99599934	-17.80375099	15.17765522	12.09549236	1.0
39	82.07800293	-67.51699829	-15.99599934	-17.76464653	15.1805172	12.10939121	1.0
40	82.07800293	-67.51699829	-15.99599934	-17.74213982	15.1885376	12.12744904	1.0
41	82.07800293	-67.51699829	-15.99599934	-17.72141266	15.19639587	12.14394951	1.0
[LeftLeg]
38	0	-443.7049866	2.845999956	25.75936127	7.618390083	6.244109154	1.0
39	0	-443.7049866	2.845999956	25.74615669	7.619523525	6.245364189	1.0
40	0	-443.7049866	2.845999956	25.7650795	7.616529942	6.252746582	1.0
41	0	-443.7049866	2.845999956	25.7879715	7.613177776	6.260329723	1.0
[LeftFoot]
38	0	-444.2789917	-29.8219986	-4.533883095	2.729670286	-11.08968925	1.0
39	0	-444.2789917	-29.8219986	-4.554891586	2.698926926	-11.0912075	1.0
40	0	-444.2789917	-29.8219986	-4.576582909	2.667402267	-11.09267807	1.0
41	0	-444.2789917	-29.8219986	-4.592512131	2.638863325	-11.09462166	1.0
[LeftToeBase]
38	0	-87.28699493	107.1060028	-0.4505825639	-3.973493949e-05	1.122520757e-06	1.0
39	0	-87.28699493	107.1060028	-0.4595931172	-5.000166493e-05	1.397749884e-06	1.0
40	0	-87.28699493	107.1060028	-0.4612187743	-3.294141789e-05	1.828388463e-06	1.0
41	0	-87.28699493	107.1060028	-0.4611748159	-7.224882211e-06	2.436165687e-06	1.0
[RightUpLeg]
38	-82.07800293	-67.51699829	-15.99599934	-1.781386733	-4.576257706	10.95743752	1.0
39	-82.07800293	-67.51699829	-15.99599934	-1.727805138	-4.57924366	10.96794605	1.0
40	-82.07800293	-67.51699829	-15.99599934	-1.686185718	-4.582109451	10.98038292	1.0
41	-82.07800293	-67.51699829	-15.99599934	-1.644975662	-4.584722519	10.98992157	1.0
[RightLeg]
38	0	-443.7049866	2.861999989	11.18993473	-5.501412392	2.200111389	1.0
39	0	-443.7049866	2.861999989	11.15016651	-5.519333839	2.19436264	1.0
40	0	-443.7049866	2.861999989	11.13734913	-5.534553528	2.191980362	1.0
41	0	-443.7049866	2.861999989	11.12612152	-5.544596672	2.191091061	1.0
[RightFoot]
38	0	-444.2770081	-29.83799934	-9.702132225	-0.2971357405	-7.635332584	1.0
39	0	-444.2770081	-29.83799934	-9.694382668	-0.2965287566	-7.631432533	1.0
40	0	-444.2770081	-29.83799934	-9.702529907	-0.2969151139	-7.630417824	1.0
41	0	-444.2770081	-29.83799934	-9.71273613	-0.2975795567	-7.630842209	1.0
[RightToeBase]
38	0	-87.28699493	107.1060028	-0.714301765	1.124273058e-05	-1.14864622e-06	1.0
39	0	-87.28699493	107.1060028	-0.7138437629	1.149162654e-05	3.472608228e-07	1.0
40	0	-87.28699493	107.1060028	-0.7041718364	3.213385298e-06	-8.943790704e-07	1.0
41	0	-87.28699493	107.1060028	-0.6921975017	-6.328159543e-06	-2.730859478e-06	1.0
[EndOfFile]
